<?xml version="1.0" standalone="no"?>
<!DOCTYPE svg PUBLIC "-//W3C//DTD SVG 20010904//EN"
 "http://www.w3.org/TR/2001/REC-SVG-20010904/DTD/svg10.dtd">
<svg version="1.0" xmlns="http://www.w3.org/2000/svg"
 width="478.000000pt" height="478.000000pt" viewBox="0 0 478.000000 478.000000"
 preserveAspectRatio="xMidYMid meet">
<metadata>
Created by potrace 1.11, written by Peter Selinger 2001-2013
</metadata>
<g transform="translate(0.000000,478.000000) scale(0.100000,-0.100000)"
fill="#000000" stroke="none">
<path d="M7 3882 c-3 -6 -1 -2959 2 -2982 2 -15 3448 -12 3453 3 4 10 3 2960
-1 2979 -1 9 -3450 9 -3454 0z m3199 -225 c4 -3 8 -2257 4 -2488 l0 -26 -1476
1 -1477 1 -1 1257 -1 1257 35 3 c63 5 2910 1 2916 -5z"/>
<path d="M546 3311 c-1 -4 -2 -409 -2 -901 l1 -895 143 -2 c105 -2 142 1 143
10 1 7 2 212 3 457 l1 445 25 33 c72 96 194 134 316 97 74 -22 116 -76 127
-165 3 -25 6 -232 6 -462 l1 -416 143 1 142 2 1 440 c2 490 -3 555 -56 661
-54 109 -138 166 -279 186 -144 21 -295 -21 -383 -108 -21 -20 -39 -32 -39
-28 -1 5 -3 149 -4 319 -1 171 -3 315 -4 322 -1 9 -39 12 -142 11 -77 -1 -141
-4 -143 -7z"/>
<path d="M2288 2800 c-228 -40 -391 -204 -444 -444 -17 -81 -23 -271 -11 -352
23 -151 76 -265 166 -355 76 -76 140 -112 249 -140 231 -59 471 21 600 202 34
47 68 136 74 191 l3 33 -137 3 c-128 2 -138 1 -138 -16 0 -36 -51 -120 -89
-147 -119 -82 -296 -59 -371 50 -55 80 -73 163 -72 338 2 278 95 410 288 409
116 -1 209 -76 236 -192 6 -27 16 -51 22 -51 48 -6 243 -4 252 3 18 13 -9 139
-45 213 -61 123 -183 216 -326 248 -69 16 -188 19 -257 7z"/>
<path d="M4114 2792 c-205 -41 -357 -194 -413 -417 -23 -94 -31 -250 -17 -355
22 -158 79 -285 170 -374 111 -109 218 -149 401 -150 89 0 123 4 176 22 111
38 208 109 268 197 36 51 71 146 71 189 l0 33 -131 -1 -130 -1 -18 -53 c-35
-103 -118 -156 -241 -156 -102 0 -161 29 -212 105 -52 75 -71 156 -71 304 0
163 9 220 51 300 45 86 119 134 215 139 133 7 243 -77 263 -201 l7 -43 46 -1
c52 -1 141 -1 189 0 29 1 32 4 32 34 0 18 -7 59 -15 92 -68 258 -335 399 -641
337z"/>
<path d="M3717 1142 c-13 -3 -15 -21 -14 -127 l1 -124 523 0 523 0 0 127 0
127 -508 0 c-280 0 -516 -1 -525 -3z"/>
</g>
</svg>
