<svg version="1" xmlns="http://www.w3.org/2000/svg" width="346.667" height="346.667" viewBox="0 0 260.000000 260.000000"><path d="M8 130v122h190V8H8v122zm180 0v112H18V18h170v112z"/><path d="M61 75.5V123h25V82h35v41h25l-.2-47.3-.3-47.2h-24l-.3 17.2L121 63H86l-.2-17.3-.3-17.2-12.2-.3-12.3-.3v47.6zM91.1 139.6c-16.6 5.6-25.9 16.4-29.7 34.6-4.3 20 2.6 42 16.3 51.8 9 6.4 15 8.2 28.9 8.8 12.7.5 20.6-.9 31.7-5.7l4.7-2v-11.6c0-13.3-.3-13.6-7.6-8.1-7.8 6-13.1 8-21.7 8.4-6.8.4-8.4.1-13.2-2.3-9.6-4.7-14-13.4-13.9-28 0-7.6.4-9.9 2.6-14.7 4.8-10.4 11.7-14.7 23.3-14.8 7.9 0 14.2 2.4 22.1 8.5 7.9 5.9 8.4 5.4 8.4-8V145l-4.1-2c-12.5-6.4-34.4-8-47.8-3.4zM209 247v5h36v-10h-36v5z"/></svg>